<svg xmlns="http://www.w3.org/2000/svg" id="Layer_1" version="1.1" viewBox="0 0 96 98.947" width="96" height="98.947"><defs><style>.st0 {
    fill: #f1b15e;
    }</style></defs><path class="st0" d="M22.557 18.435h5.795a37.93 37.93 0 0 1 4.904 -9.163h-10.699c-10.26 0 -15.585 6.345 -15.585 16.996v2.899H0v7.676h6.972v28.902h9.634V36.843h9.768a38.136 38.136 0 0 1 -0.366 -5.226c0 -0.824 0.035 -1.639 0.087 -2.45h-9.489v-2.899c0 -4.464 1.489 -7.832 5.951 -7.832"/><path class="st0" d="M58.246 17.908c0 3.292 2.821 5.801 6.191 5.801s6.035 -2.509 6.035 -5.801 -2.743 -5.722 -6.035 -5.722 -6.191 2.507 -6.191 5.722"/><path class="st0" d="M77.791 3.044C71.308 -0.081 63.835 -0.83 56.752 0.937a30.921 30.921 0 0 0 -12.689 6.603 28.859 28.859 0 0 0 -1.873 1.731c-2.025 2.039 -3.818 4.433 -5.337 7.148a31.952 31.952 0 0 0 -1.048 2.015c-1.63 3.418 -2.625 7.061 -2.931 10.731a29.89 29.89 0 0 0 -0.107 2.571 28.653 28.653 0 0 0 0.4 5.105 31.952 31.952 0 0 0 1.577 5.868c1.185 3.135 2.794 6.001 4.334 8.657 1.557 2.773 2.828 5.106 3.969 7.463a56.688 56.688 0 0 1 2.422 6.012q0.34 1.004 0.645 2.022l0.41 1.46c0.332 1.191 0.974 2.201 1.851 2.918 1.614 1.32 3.759 1.628 5.787 0.804l5.451 -2.603 7.008 -3.347 -0.175 -3.8 4.948 -0.504 0.055 -0.006 0.042 -0.03c0.279 -0.198 0.327 -0.947 0.33 -1.373 0.003 -0.335 -0.022 -1.464 -0.429 -1.915l-4.129 -2.584 4.115 -0.382 0.045 -0.032c0.34 -0.251 0.382 -1.776 0.155 -2.659 -0.14 -0.546 -0.377 -0.896 -0.666 -1.019l-3.771 -2.281c0.373 -0.02 0.762 -0.03 1.163 -0.04 0.912 -0.023 1.854 -0.046 2.646 -0.212q0.419 -0.089 0.591 -0.694c0.23 -0.815 0.065 -2.239 -0.318 -2.769 -0.184 -0.253 -1.02 -0.749 -2.95 -1.837 -0.569 -0.321 -1.111 -0.626 -1.395 -0.802 0.305 -0.014 0.694 -0.016 1.097 -0.022 1.669 -0.014 2.882 -0.051 3.265 -0.369 0.318 -0.266 0.415 -1.721 0.173 -2.639 -0.13 -0.493 -0.347 -0.815 -0.617 -0.939l-3.772 -2.282 3.844 -0.318 0.077 -0.022c0.461 -0.231 0.543 -1.377 0.486 -2.045 -0.039 -0.46 -0.182 -1.282 -0.701 -1.622l-5.81 -3.545 0.337 -2.969 -6.155 0.179 0.038 0.23c0.055 0.334 0.009 0.737 -0.042 1.163 -0.101 0.879 -0.217 1.873 0.585 2.555 0.277 0.234 1.198 0.762 2.171 1.317 0.614 0.351 1.406 0.802 1.797 1.056 -0.249 0.083 -0.6 0.064 -0.941 0.045a5.153 5.153 0 0 0 -0.658 -0.01l-0.296 0.02c-0.97 0.064 -1.863 0.13 -2.135 0.257 -0.467 0.221 -0.61 1.174 -0.543 1.967 0.032 0.397 0.175 1.363 0.793 1.755l3.776 2.283 -3.959 0.348 -0.077 0.022c-0.387 0.194 -0.442 0.965 -0.441 1.409 0 0.728 0.165 1.723 0.669 2.155l3.911 2.411 -0.439 0.012c-1.269 0.033 -2.583 0.066 -3.748 0.403l-0.064 0.032c-0.29 0.219 -0.312 1.718 -0.108 2.571 0.123 0.513 0.33 0.841 0.587 0.963l3.781 2.283 -3.81 0.348 -0.071 0.019c-0.805 0.382 -0.503 2.497 -0.296 3.117l0.033 0.101 4.305 2.772 -3.8 0.256c-0.259 0.014 -0.387 0.156 -0.484 0.286 -0.236 0.312 -0.28 1.266 -0.262 2.7l-6.456 3.301a64.934 64.934 0 0 0 -3.434 -8.96c-1.234 -2.555 -2.574 -5.012 -4.21 -7.927 -1.464 -2.523 -2.862 -5.006 -3.849 -7.624 -1.051 -2.82 -1.562 -5.651 -1.523 -8.429 -0.019 -4.064 1.075 -8.158 3.165 -11.847 1.557 -2.779 3.447 -5.116 5.629 -6.956a23.809 23.809 0 0 1 9.778 -5.102q0.235 -0.059 0.471 -0.108l0.143 -0.03a24.427 24.427 0 0 1 12.017 0.393c1.26 0.363 2.47 0.822 3.597 1.366 4.379 2.074 8.177 5.606 10.696 9.955 2.763 4.659 3.922 10.01 3.263 15.074 -0.312 2.652 -1.159 5.453 -2.506 8.312 -0.711 1.441 -1.533 2.877 -2.33 4.268 -0.504 0.882 -1.007 1.765 -1.497 2.662 -1.483 2.732 -3.859 8.261 -4.639 10.078a3843.463 3843.463 0 0 1 -2.638 6.091l-7.479 3.62 -15.583 7.544a4.112 4.112 0 0 0 -2.539 4.421c0.267 1.859 1.802 3.295 3.782 3.525l9.842 0.344 -12.571 7.106 2.937 6.457 25.615 -12.315a4.12 4.12 0 0 0 2.064 -5.378c-0.585 -1.382 -1.927 -2.333 -3.499 -2.489l-9.277 -2.265 11.815 -4.99c0.289 -0.132 0.305 -0.143 3.34 -7.103l0.435 -1 0.074 -0.171c0.931 -2.191 3.243 -7.557 4.602 -10.062 0.449 -0.827 0.915 -1.643 1.383 -2.458l0.039 -0.066c0.811 -1.413 1.727 -3.016 2.565 -4.714 1.695 -3.594 2.759 -7.142 3.159 -10.536 0.86 -6.609 -0.629 -13.559 -4.194 -19.571C88.342 10.26 83.447 5.72 77.787 3.037"/><script xmlns=""/></svg>